/* XPM */
static char * app_16x16_xpm[] = {
"16 16 4 1",
" 	c None",
".	c #000000",
"+	c #B9B9B9",
"@	c #80AC56",
"                ",
"                ",
"                ",
"                ",
"  ............. ",
"  .+++++++++++. ",
"  .++.......++. ",
"  .++.@@@@@.++. ",
"  .++.@@@@@.++. ",
"  .++.@@@@@.++. ",
"  .++.@@@@@.++. ",
"  .++.@@@@@.++. ",
"  .++.......++. ",
"  .+++++++++++. ",
"  ............. ",
"                "};
