/* XPM */
static char * folder_16x16_xpm[] = {
"16 16 4 1",
" 	c None",
".	c #000000",
"+	c #5A7084",
"@	c #D1D1D1",
"                ",
"  ............. ",
"  .+++++++++++. ",
".............+. ",
".@@@@@@@@@@@.+. ",
".@@@@@@@@@@@.+. ",
".@@@.....@@@.+. ",
".@@@.+++.@@@.+. ",
".@@@.+++.@@@.+. ",
".@@@.....@@@.+. ",
".@@@@@@@@@@@... ",
".@@@@@@@@@@@.   ",
".............   ",
"                ",
"                ",
"                "};
