/* XPM */
static char *closeI_xpm[] = {
"27 32 6 1",
" 	c None",
"1	c #000000",
"2	c #010101",
"3	c #696969",
"4	c #4A4A4A",
"5	c #FFFFFF",
"111111111111111111111121221",
"333333333333333333333333333",
"444444444444444444444444444",
"444444444444444444444444444",
"444444444444444444444444444",
"444444444444444444444444444",
"444444554455444444444444444",
"444444555555444444444444444",
"444444455554444444444444444",
"444444455554444444444444444",
"444444555555444444444444444",
"444444554455444444444444444",
"444444444444444444444444444",
"444444444444444444444444444",
"444444444444444444444444444",
"111111111111111111111111111",
"111111111111111111111111111",
"333333333333333333333333333",
"444444444444444444444444444",
"444444444444444444444444444",
"444444444444444444444444444",
"444444444444444444444444444",
"444444334433444444444444444",
"444444333333444444444444444",
"444444433334444444444444444",
"444444433334444444444444444",
"444444333333444444444444444",
"444444334433444444444444444",
"444444444444444444444444444",
"444444444444444444444444444",
"444444444444444444444444444",
"111111111111111111111111111"
};
