/* XPM */
static char * frameABR_xpm[] = {
"16 16 3 1",
" 	c None",
".	c #040404",
"+	c #000000",
"               .",
"               .",
"               .",
"               .",
"               .",
"               .",
"               .",
"               .",
"               .",
"               .",
"               .",
"               .",
"               .",
"               .",
"               .",
"++++++++++++++++"};
