/* XPM */
static char * copy of dframeBR_xpm[] = {
"16 16 2 1",
" 	c None",
".	c #040404",
".               ",
".               ",
".               ",
".               ",
".               ",
".               ",
".               ",
".               ",
".               ",
".               ",
".               ",
".               ",
".               ",
".               ",
".               ",
"................"};
