/* XPM */
static char * frameBL_xpm[] = {
"18 20 2 1",
" 	c None",
".	c #000000",
".                 ",
".                 ",
".                 ",
".                 ",
".                 ",
".                 ",
".                 ",
".                 ",
".                 ",
".                 ",
".                 ",
".                 ",
".                 ",
".                 ",
".                 ",
".                 ",
".                 ",
".                 ",
".                 ",
".................."};
