/* XPM */
static char *maximizeA_xpm[] = {
"19 32 5 1",
" 	c None",
"1	c #000000",
"2	c #696969",
"3	c #4A4A4A",
"4	c #FFFFFF",
"1111111111111111111",
"2222222222222222222",
"3333333333333333333",
"3333333333333333333",
"3333333333333333333",
"3333333333333333333",
"3333333334444333333",
"3333333333444333333",
"3333333433344333333",
"3333333443334333333",
"3333333444333333333",
"3333333444433333333",
"3333333333333333333",
"3333333333333333333",
"3333333333333333333",
"1111111111111111111",
"1111111111111111111",
"2222222222222222222",
"3333333333333333333",
"3333333333333333333",
"3333333333333333333",
"3333333333333333333",
"3333333332222333333",
"3333333333222333333",
"3333333233322333333",
"3333333223332333333",
"3333333222333333333",
"3333333222233333333",
"3333333333333333333",
"3333333333333333333",
"3333333333333333333",
"1111111111111111111"
};
