/* XPM */
static char * menusel_xpm[] = {
"400 23 57 1",
" 	c None",
".	c #000000",
"+	c #68696C",
"@	c #656669",
"#	c #67686B",
"$	c #66676A",
"%	c #616369",
"&	c #60626A",
"*	c #5D5F65",
"=	c #5C5F66",
"-	c #5A5C62",
";	c #595B61",
">	c #56585E",
",	c #55575D",
"'	c #52545A",
")	c #515359",
"!	c #4E5056",
"~	c #4D4F55",
"{	c #4B4D51",
"]	c #494B51",
"^	c #47494D",
"/	c #45474B",
"(	c #46484C",
"_	c #44464A",
":	c #424448",
"<	c #434549",
"[	c #1D1D1D",
"}	c #181818",
"|	c #191919",
"1	c #1A1A1A",
"2	c #1B1B1B",
"3	c #1C1C1C",
"4	c #171717",
"5	c #121212",
"6	c #131313",
"7	c #141414",
"8	c #151515",
"9	c #161616",
"0	c #171819",
"a	c #121314",
"b	c #131315",
"c	c #131415",
"d	c #141516",
"e	c #151617",
"f	c #161718",
"g	c #171719",
"h	c #1B1B1F",
"i	c #16161A",
"j	c #17171B",
"k	c #18181A",
"l	c #18181C",
"m	c #19191B",
"n	c #19191D",
"o	c #1A1A1C",
"p	c #1A1A1E",
"q	c #1B1B1D",
"r	c #1C1C20",
"................................................................................................................................................................................................................................................................................................................................................................................................................",
".+@++++@++++@+++++++++@++++++++++++++++++###$$$@@@@$$$###+++++++++++++++++++++++++++++++++++++++++++++++###$$$@@@@$$$###++++++++++++++++++++++++++++++++++++++++++++++++++++++++++++++++++++++++++++++###$$$@@@$$$####++++++++++++++++++++++++++++++++++++++++++++++++++++++++++++++++++++++++++++++###$$$@@@$$$###++++++++++++++++++++++###$$$@@@@$$$###++++++++++++++++++++++++++++++++@+++++++++@++++@++++@+.",
".%%&&&&%&&&&%&&&&&&&&&%&&&&&&&&&&&&&&&&&&&&&%%%%%%%%%%&&&&&&&&&&&&&&&&&&&&&&&&&&&&&&&&&&&&&&&&&&&&&&&&&&&&&%%%%%%%%%%&&&&&&&&&&&&&&&&&&&&&&&&&&&&&&&&&&&&&&&&&&&&&&&&&&&&&&&&&&&&&&&&&&&&&&&&&&&&&&&&&&&&%%%%%%%%%&&&&&&&&&&&&&&&&&&&&&&&&&&&&&&&&&&&&&&&&&&&&&&&&&&&&&&&&&&&&&&&&&&&&&&&&&&&&&&&&&&&&&%%%%%%%%%&&&&&&&&&&&&&&&&&&&&&&&&&&&&%%%%%%%%%%&&&&&&&&&&&&&&&&&&&&&&&&&&&&&&&&&&&%&&&&&&&&&%&&&&%&&&&%%.",
".**====*====*=========*=====================**********=====================================================**********====================================================================================*********=====================================================================================*********============================**********===================================*=========*====*====**.",
".--;;;;-;;;;-;;;;;;;;;-;;;;;;;;;;;;;;;;;;;;;----------;;;;;;;;;;;;;;;;;;;;;;;;;;;;;;;;;;;;;;;;;;;;;;;;;;;;;----------;;;;;;;;;;;;;;;;;;;;;;;;;;;;;;;;;;;;;;;;;;;;;;;;;;;;;;;;;;;;;;;;;;;;;;;;;;;;;;;;;;;;---------;;;;;;;;;;;;;;;;;;;;;;;;;;;;;;;;;;;;;;;;;;;;;;;;;;;;;;;;;;;;;;;;;;;;;;;;;;;;;;;;;;;;;---------;;;;;;;;;;;;;;;;;;;;;;;;;;;;----------;;;;;;;;;;;;;;;;;;;;;;;;;;;;;;;;;;;-;;;;;;;;;-;;;;-;;;;--.",
".>>,,,,>,,,,>,,,,,,,,,>,,,,,,,,,,,,,,,,,,,,,>>>>>>>>>>,,,,,,,,,,,,,,,,,,,,,,,,,,,,,,,,,,,,,,,,,,,,,,,,,,,,,>>>>>>>>>>,,,,,,,,,,,,,,,,,,,,,,,,,,,,,,,,,,,,,,,,,,,,,,,,,,,,,,,,,,,,,,,,,,,,,,,,,,,,,,,,,,,,>>>>>>>>>,,,,,,,,,,,,,,,,,,,,,,,,,,,,,,,,,,,,,,,,,,,,,,,,,,,,,,,,,,,,,,,,,,,,,,,,,,,,,,,,,,,,,>>>>>>>>>,,,,,,,,,,,,,,,,,,,,,,,,,,,,>>>>>>>>>>,,,,,,,,,,,,,,,,,,,,,,,,,,,,,,,,,,,>,,,,,,,,,>,,,,>,,,,>>.",
".''))))'))))')))))))))')))))))))))))))))))))'''''''''')))))))))))))))))))))))))))))))))))))))))))))))))))))''''''''''))))))))))))))))))))))))))))))))))))))))))))))))))))))))))))))))))))))))))))))))))))''''''''')))))))))))))))))))))))))))))))))))))))))))))))))))))))))))))))))))))))))))))))))))))'''''''''))))))))))))))))))))))))))))'''''''''')))))))))))))))))))))))))))))))))))')))))))))'))))'))))''.",
".!!~~~~!~~~~!~~~~~~~~~!~~~~~~~~~~~~~~~~~~~!!!!!!!!!!!!!!~~~~~~~~~~~~~~~~~~~~~~~~~~~~~~~~~~~~~~~~~~~~~~~~~!!!!!!!!!!!!!!~~~~~~~~~~~~~~~~~~~~~~~~~~~~~~~~~~~~~~~~~~~~~~~~~~~~~~~~~~~~~~~~~~~~~~~~~~~~~~~~!!!!!!!!!!!!!!~~~~~~~~~~~~~~~~~~~~~~~~~~~~~~~~~~~~~~~~~~~~~~~~~~~~~~~~~~~~~~~~~~~~~~~~~~~~~~~!!!!!!!!!!!!!!~~~~~~~~~~~~~~~~~~~~~~~~!!!!!!!!!!!!!!~~~~~~~~~~~~~~~~~~~~~~~~~~~~~~~~~!~~~~~~~~~!~~~~!~~~~!!.",
".{{]]]]{]]]]{]]]]]]]]]{]]]]]]]]]]]]]]]]]]]{{{{{{{{{{{{{{]]]]]]]]]]]]]]]]]]]]]]]]]]]]]]]]]]]]]]]]]]]]]]]]]{{{{{{{{{{{{{{]]]]]]]]]]]]]]]]]]]]]]]]]]]]]]]]]]]]]]]]]]]]]]]]]]]]]]]]]]]]]]]]]]]]]]]]]]]]]]]]{{{{{{{{{{{{{{]]]]]]]]]]]]]]]]]]]]]]]]]]]]]]]]]]]]]]]]]]]]]]]]]]]]]]]]]]]]]]]]]]]]]]]]]]]]]]]{{{{{{{{{{{{{{]]]]]]]]]]]]]]]]]]]]]]]]{{{{{{{{{{{{{{]]]]]]]]]]]]]]]]]]]]]]]]]]]]]]]]]{]]]]]]]]]{]]]]{]]]]{{.",
".^^////^////^/////////^///////////////////(((((^^^^(((((/////////////////////////////////////////////////(((((^^^^(((((////////////////////////////////////////////////////////////////////////////////((((^^^^^(((((///////////////////////////////////////////////////////////////////////////////(((((^^^^^((((////////////////////////(((((^^^^(((((/////////////////////////////////^/////////^////^////^^.",
".__::::_::::_:::::::::_:::::::::::::::::::<<<<<____<<<<<:::::::::::::::::::::::::::::::::::::::::::::::::<<<<<____<<<<<::::::::::::::::::::::::::::::::::::::::::::::::::::::::::::::::::::::::::::::::<<<<_____<<<<<:::::::::::::::::::::::::::::::::::::::::::::::::::::::::::::::::::::::::::::::<<<<<_____<<<<::::::::::::::::::::::::<<<<<____<<<<<:::::::::::::::::::::::::::::::::_:::::::::_::::_::::__.",
".[[}}}}[}}}}[}}}}}}}}}[}}}}}}}}}}}}}}}}}||112233[[33221||}}}}}}}}}}}}}}}}}}}}}}}}}}}}}}}}}}}}}}}}}}}}}}||112233[[33221||}}}}}}}}}}}}}}}}}}}}}}}}}}}}}}}}}}}}}}}}}}}}}}}}}}}}}}}}}}}}}}}}}}}}}}}}}}}}}||112233[[32211||}}}}}}}}}}}}}}}}}}}}}}}}}}}}}}}}}}}}}}}}}}}}}}}}}}}}}}}}}}}}}}}}}}}}}}}}}}}}}||11223[[332211||}}}}}}}}}}}}}}}}}}}}||112233[[33221||}}}}}}}}}}}}}}}}}}}}}}}}}}}}}}}}[}}}}}}}}}[}}}}[}}}}[[.",
".44555545555455555555545555555555555555556778899449988776555555555555555555555555555555555555555555555556778899449988776555555555555555555555555555555555555555555555555555555555555555555555555555556677889944998776655555555555555555555555555555555555555555555555555555555555555555555555555555667788994998877665555555555555555555556778899449988776555555555555555555555555555555554555555555455554555544.",
".44555545555455555555545555555555555555556778899449988776555555555555555555555555555555555555555555555556778899449988776555555555555555555555555555555555555555555555555555555555555555555555555555556677889944998776655555555555555555555555555555555555555555555555555555555555555555555555555555667788994998877665555555555555555555556778899449988776555555555555555555555555555555554555555555455554555544.",
".44555545555455555555545555555555555555556778899449988776555555555555555555555555555555555555555555555556778899449988776555555555555555555555555555555555555555555555555555555555555555555555555555556677889944998776655555555555555555555555555555555555555555555555555555555555555555555555555555667788994998877665555555555555555555556778899449988776555555555555555555555555555555554555555555455554555544.",
".44555545555455555555545555555555555555556778899449988776555555555555555555555555555555555555555555555556778899449988776555555555555555555555555555555555555555555555555555555555555555555555555555556677889944998776655555555555555555555555555555555555555555555555555555555555555555555555555555667788994998877665555555555555555555556778899449988776555555555555555555555555555555554555555555455554555544.",
".44555545555455555555545555555555555555556778899449988776555555555555555555555555555555555555555555555556778899449988776555555555555555555555555555555555555555555555555555555555555555555555555555556677889944998776655555555555555555555555555555555555555555555555555555555555555555555555555555667788994998877665555555555555555555556778899449988776555555555555555555555555555555554555555555455554555544.",
".44555545555455555555545555555555555555556778899449988776555555555555555555555555555555555555555555555556778899449988776555555555555555555555555555555555555555555555555555555555555555555555555555556677889944998776655555555555555555555555555555555555555555555555555555555555555555555555555555667788994998877665555555555555555555556778899449988776555555555555555555555555555555554555555555455554555544.",
".44555545555455555555545555555555555555556778899449988776555555555555555555555555555555555555555555555556778899449988776555555555555555555555555555555555555555555555555555555555555555555555555555556677889944998776655555555555555555555555555555555555555555555555555555555555555555555555555555667788994998877665555555555555555555556778899449988776555555555555555555555555555555554555555555455554555544.",
".00aaaa0aaaa0aaaaaaaaa0aaaaaaaaaaaaaaaaabcddeeff00ffeedccaaaaaaaaaaaaaaaaaaaaaaaaaaaaaaaaaaaaaaaaaaaaaabcddeeff00ffeedccaaaaaaaaaaaaaaaaaaaaaaaaaaaaaaaaaaaaaaaaaaaaaaaaaaaaaaaaaaaaaaaaaaaaaaaaaaaaaccddeeff00feeddccaaaaaaaaaaaaaaaaaaaaaaaaaaaaaaaaaaaaaaaaaaaaaaaaaaaaaaaaaaaaaaaaaaaaaaaaaaaaaccddeefg0ffeeddccaaaaaaaaaaaaaaaaaaaabcddeeff00ffeedccaaaaaaaaaaaaaaaaaaaaaaaaaaaaaaaa0aaaaaaaaa0aaaa0aaaa00.",
".hhiiiihiiiihiiiiiiiiihiiiiiiiiiiiiiiiiijklmnopphhppnnmkkiiiiiiiiiiiiiiiiiiiiiiiiiiiiiiiiiiiiiiiiiiiiiijklmnopphhppnnmkkiiiiiiiiiiiiiiiiiiiiiiiiiiiiiiiiiiiiiiiiiiiiiiiiiiiiiiiiiiiiiiiiiiiiiiiiiiiiikklmnopphhponmmkkiiiiiiiiiiiiiiiiiiiiiiiiiiiiiiiiiiiiiiiiiiiiiiiiiiiiiiiiiiiiiiiiiiiiiiiiiiiiikklmnophhqponmlkkiiiiiiiiiiiiiiiiiiiijklmnopphhppnnmkkiiiiiiiiiiiiiiiiiiiiiiiiiiiiiiiihiiiiiiiiihiiiihiiiihh.",
".rrjjjjrjjjjrjjjjjjjjjrjjjjjjjjjjjjjjjjjllnnpphhrrhhppnlljjjjjjjjjjjjjjjjjjjjjjjjjjjjjjjjjjjjjjjjjjjjjjllnnpphhrrhhppnlljjjjjjjjjjjjjjjjjjjjjjjjjjjjjjjjjjjjjjjjjjjjjjjjjjjjjjjjjjjjjjjjjjjjjjjjjjjjjllnnpphhrrhppnnlljjjjjjjjjjjjjjjjjjjjjjjjjjjjjjjjjjjjjjjjjjjjjjjjjjjjjjjjjjjjjjjjjjjjjjjjjjjjjllnnpphrrhhppnnlljjjjjjjjjjjjjjjjjjjjllnnpphhrrhhppnlljjjjjjjjjjjjjjjjjjjjjjjjjjjjjjjjrjjjjjjjjjrjjjjrjjjjrr.",
"................................................................................................................................................................................................................................................................................................................................................................................................................"};
