/* XPM */
static char *minimizeA_xpm[] = {
"15 32 5 1",
" 	c None",
"1	c #000000",
"2	c #696969",
"3	c #4A4A4A",
"4	c #FFFFFF",
"111111111111111",
"222222222222222",
"333333333333333",
"333333333333333",
"333333333333333",
"333333333333333",
"333333333333333",
"333333333333333",
"333333333333333",
"333333333333333",
"333344444433333",
"333344444433333",
"333333333333333",
"333333333333333",
"333333333333333",
"111111111111111",
"111111111111111",
"222222222222222",
"333333333333333",
"333333333333333",
"333333333333333",
"333333333333333",
"333333333333333",
"333333333333333",
"333333333333333",
"333333333333333",
"333322222233333",
"333322222233333",
"333333333333333",
"333333333333333",
"333333333333333",
"111111111111111"
};
