/* XPM */
static char * restoreI_xpm[] = {
"19 32 6 1",
" 	c None",
".	c #000000",
"+	c #696969",
"@	c #4A7F99",
"#	c #FFFFFF",
"$	c #4A4A4A",
"...................",
"+++++++++++++++++++",
"@@@@@@@@@@@@@@@@@@@",
"@@@@@@@@@@@@@@@@@@@",
"@@@@@@@@@@@@@@@@@@@",
"@@@@@@@@@@@@@@@@@@@",
"@@@@@@@@@####@@@@@@",
"@@@@@@@@@@###@@@@@@",
"@@@@@@@#@@@##@@@@@@",
"@@@@@@@##@@@#@@@@@@",
"@@@@@@@###@@@@@@@@@",
"@@@@@@@####@@@@@@@@",
"@@@@@@@@@@@@@@@@@@@",
"@@@@@@@@@@@@@@@@@@@",
"@@@@@@@@@@@@@@@@@@@",
"...................",
"...................",
"+++++++++++++++++++",
"$$$$$$$$$$$$$$$$$$$",
"$$$$$$$$$$$$$$$$$$$",
"$$$$$$$$$$$$$$$$$$$",
"$$$$$$$$$$$$$$$$$$$",
"$$$$$$$$$++++$$$$$$",
"$$$$$$$$$$+++$$$$$$",
"$$$$$$$+$$$++$$$$$$",
"$$$$$$$++$$$+$$$$$$",
"$$$$$$$+++$$$$$$$$$",
"$$$$$$$++++$$$$$$$$",
"$$$$$$$$$$$$$$$$$$$",
"$$$$$$$$$$$$$$$$$$$",
"$$$$$$$$$$$$$$$$$$$",
"..................."};
