/* XPM */
static char * titleIR_xpm[] = {
"1 16 4 1",
" 	c None",
".	c #000000",
"+	c #696969",
"@	c #4A4A4A",
".",
"+",
"@",
"@",
"@",
"@",
"@",
"@",
"@",
"@",
"@",
"@",
"@",
"@",
"@",
"."};
