/* XPM */
static char * titleAB_xpm[] = {
"274 16 5 1",
" 	c None",
".	c #000000",
"+	c #6A6A6A",
"@	c #696969",
"#	c #4A4A4A",
"..................................................................................................................................................................................................................................................................................",
"+@@@@@@@@@@@@@@@@@@@@@@@@@@@@@@@@@@@@@@@@@@@@@@@@@@@@@@@@@@@@@@@@@@@@@@@@@@@@@@@@@@@@@@@@@@@@@@@@@@@@@@@@@@@@@@@@@@@@@@@@@@@@@@@@@@@@@@@@@@@@@@@@@@@@@@@@@@@@@@@@@@@@@@@@@@@@@@@@@@@@@@@@@@@@@@@@@@@@@@@@@@@@@@@@@@@@@@@@@@@@@@@@@@@@@@@@@@@@@@@@@@@@@@@@@@@@@@@@@@@@@@@@@@@@@@@@@",
"##################################################################################################################################################################################################################################################################################",
"##################################################################################################################################################################################################################################################################################",
"##################################################################################################################################################################################################################################################################################",
"##################################################################################################################################################################################################################################################################################",
"##################################################################################################################################################################################################################################################################################",
"##################################################################################################################################################################################################################################################################################",
"##################################################################################################################################################################################################################################################################################",
"##################################################################################################################################################################################################################################################################################",
"##################################################################################################################################################################################################################################################################################",
"##################################################################################################################################################################################################################################################################################",
"##################################################################################################################################################################################################################################################################################",
"##################################################################################################################################################################################################################################################################################",
"##################################################################################################################################################################################################################################################################################",
".................................................................................................................................................................................................................................................................................."};
