/* XPM */
static char * titleAT_xpm[] = {
"3 16 5 1",
" 	c None",
".	c #000000",
"+	c #6A6A6A",
"@	c #4B4B4B",
"#	c #484848",
"...",
"+++",
"@@@",
"@@@",
"@@@",
"@@@",
"@@@",
"@@@",
"@@@",
"@@@",
"@@@",
"@@@",
"@@@",
"###",
"@@@",
"..."};
