/* XPM */
static char * taskbuttonactive_xpm[] = {
"400 23 29 1",
" 	c None",
".	c #202020",
"+	c #797979",
"@	c #7A7A7A",
"#	c #777777",
"$	c #6F6F6F",
"%	c #707070",
"&	c #696969",
"*	c #646464",
"=	c #5E5E5E",
"-	c #585858",
";	c #525252",
">	c #303030",
",	c #0A0A0A",
"'	c #050505",
")	c #060606",
"!	c #070707",
"~	c #080808",
"{	c #090909",
"]	c #0D0D0D",
"^	c #0E0E0E",
"/	c #171717",
"(	c #292929",
"_	c #282828",
":	c #2A2A2A",
"<	c #434343",
"[	c #424242",
"}	c #444444",
"|	c #464646",
"................................................................................................................................................................................................................................................................................................................................................................................................................",
".+++++@@@@++++++@+++++@@@++++@@@++++++@+++++++@@@++++@@@++++++@++++++++@+++++@@@++++@@@++++++@+++++++@@@++++@@@++++++@+@+++++@@@++++@@@++++++@+++++++@@@++++@@@++++++@++++++++@+++++@@@+++++@@@++++@@@++++++@+++++++@@@++++@@@++++++@++++++++@+++++@@@++++@@@++++++@+++++++@@@++++@@@++++++@+@+++++@@@++++@@@++++++@+++++++@@@++++@@@++++++@++++++++@+++++@@@++++@@@++++++@+++++++@@@++++@@@+++@+++++@@@@@@++++.",
".##############################################################################################################################################################################################################################################################################################################################################################################################################.",
".$$$$$%%%%%$$$$%%$$$$%%%%%%%%$$%%%$$$$$%%$$$$%%%%%%%%$$%%%$$$$$%%%$$$$%%$$$$%%%%%%%%$$%%%$$$$$%%$$$$%%%%%%%%$$%%%$$$$$%%$$$$%%%%%%%%$$%%%$$$$$%%$$$$%%%%%%%%$$%%%$$$$$%%%$$$$%%$$$$%%%%%$$$%%%%%%%%$$%%%$$$$$%%$$$$%%%%%%%%$$%%%$$$$$%%%$$$$%%$$$$%%%%%%%%$$%%%$$$$$%%$$$$%%%%%%%%$$%%%$$$$$%%$$$$%%%%%%%%$$%%%$$$$$%%$$$$%%%%%%%%$$%%%$$$$$%%%$$$$%%$$$$%%%%%%%%$$%%%$$$$$%%$$$$%%%%%%%%$$%$$$$%%%%%%$$$$$$$$$.",
".&&&&&&&&&&&&&&&&&&&&&&&&&&&&&&&&&&&&&&&&&&&&&&&&&&&&&&&&&&&&&&&&&&&&&&&&&&&&&&&&&&&&&&&&&&&&&&&&&&&&&&&&&&&&&&&&&&&&&&&&&&&&&&&&&&&&&&&&&&&&&&&&&&&&&&&&&&&&&&&&&&&&&&&&&&&&&&&&&&&&&&&&&&&&&&&&&&&&&&&&&&&&&&&&&&&&&&&&&&&&&&&&&&&&&&&&&&&&&&&&&&&&&&&&&&&&&&&&&&&&&&&&&&&&&&&&&&&&&&&&&&&&&&&&&&&&&&&&&&&&&&&&&&&&&&&&&&&&&&&&&&&&&&&&&&&&&&&&&&&&&&&&&&&&&&&&&&&&&&&&&&&&&&&&&&&&&&&&&&&&&&&&&&&&&&&&&&&&&&.",
".**************************************************************************************************************************************************************************************************************************************************************************************************************************************************************************************************************.",
".==============================================================================================================================================================================================================================================================================================================================================================================================================.",
".--------------------------------------------------------------------------------------------------------------------------------------------------------------------------------------------------------------------------------------------------------------------------------------------------------------------------------------------------------------------------------------------------------------.",
".;;;;;;;;;;;;;;;;;;;;;;;;;;;;;;;;;;;;;;;;;;;;;;;;;;;;;;;;;;;;;;;;;;;;;;;;;;;;;;;;;;;;;;;;;;;;;;;;;;;;;;;;;;;;;;;;;;;;;;;;;;;;;;;;;;;;;;;;;;;;;;;;;;;;;;;;;;;;;;;;;;;;;;;;;;;;;;;;;;;;;;;;;;;;;;;;;;;;;;;;;;;;;;;;;;;;;;;;;;;;;;;;;;;;;;;;;;;;;;;;;;;;;;;;;;;;;;;;;;;;;;;;;;;;;;;;;;;;;;;;;;;;;;;;;;;;;;;;;;;;;;;;;;;;;;;;;;;;;;;;;;;;;;;;;;;;;;;;;;;;;;;;;;;;;;;;;;;;;;;;;;;;;;;;;;;;;;;;;;;;;;;;;;;;;;;;;;;;;;.",
".>>>>>>>>>>>>>>>>>>>>>>>>>>>>>>>>>>>>>>>>>>>>>>>>>>>>>>>>>>>>>>>>>>>>>>>>>>>>>>>>>>>>>>>>>>>>>>>>>>>>>>>>>>>>>>>>>>>>>>>>>>>>>>>>>>>>>>>>>>>>>>>>>>>>>>>>>>>>>>>>>>>>>>>>>>>>>>>>>>>>>>>>>>>>>>>>>>>>>>>>>>>>>>>>>>>>>>>>>>>>>>>>>>>>>>>>>>>>>>>>>>>>>>>>>>>>>>>>>>>>>>>>>>>>>>>>>>>>>>>>>>>>>>>>>>>>>>>>>>>>>>>>>>>>>>>>>>>>>>>>>>>>>>>>>>>>>>>>>>>>>>>>>>>>>>>>>>>>>>>>>>>>>>>>>>>>>>>>>>>>>>>>>>>>>>>>>>>>>>.",
".,,,,,,,,,,,,,,,,,,,,,,,,,,,,,,,,,,,,,,,,,,,,,,,,,,,,,,,,,,,,,,,,,,,,,,,,,,,,,,,,,,,,,,,,,,,,,,,,,,,,,,,,,,,,,,,,,,,,,,,,,,,,,,,,,,,,,,,,,,,,,,,,,,,,,,,,,,,,,,,,,,,,,,,,,,,,,,,,,,,,,,,,,,,,,,,,,,,,,,,,,,,,,,,,,,,,,,,,,,,,,,,,,,,,,,,,,,,,,,,,,,,,,,,,,,,,,,,,,,,,,,,,,,,,,,,,,,,,,,,,,,,,,,,,,,,,,,,,,,,,,,,,,,,,,,,,,,,,,,,,,,,,,,,,,,,,,,,,,,,,,,,,,,,,,,,,,,,,,,,,,,,,,,,,,,,,,,,,,,,,,,,,,,,,,,,,,,,,,,.",
".''''''''''''''''''''''''''''''''''''''''''''''''''''''''''''''''''''''''''''''''''''''''''''''''''''''''''''''''''''''''''''''''''''''''''''''''''''''''''''''''''''''''''''''''''''''''''''''''''''''''''''''''''''''''''''''''''''''''''''''''''''''''''''''''''''''''''''''''''''''''''''''''''''''''''''''''''''''''''''''''''''''''''''''''''''''''''''''''''''''''''''''''''''''''''''''''''''''''''''''.",
".''''''''''''''''''''''''''''''''''''''''''''''''''''''''''''''''''''''''''''''''''''''''''''''''''''''''''''''''''''''''''''''''''''''''''''''''''''''''''''''''''''''''''''''''''''''''''''''''''''''''''''''''''''''''''''''''''''''''''''''''''''''''''''''''''''''''''''''''''''''''''''''''''''''''''''''''''''''''''''''''''''''''''''''''''''''''''''''''''''''''''''''''''''''''''''''''''''''''''''''.",
".)))))))))))))))))))))))))))))))))))))))))))))))))))))))))))))))))))))))))))))))))))))))))))))))))))))))))))))))))))))))))))))))))))))))))))))))))))))))))))))))))))))))))))))))))))))))))))))))))))))))))))))))))))))))))))))))))))))))))))))))))))))))))))))))))))))))))))))))))))))))))))))))))))))))))))))))))))))))))))))))))))))))))))))))))))))))))))))))))))))))))))))))))))))))))))))))))))))))))))))).",
".)))))))))))))))))))))))))))))))))))))))))))))))))))))))))))))))))))))))))))))))))))))))))))))))))))))))))))))))))))))))))))))))))))))))))))))))))))))))))))))))))))))))))))))))))))))))))))))))))))))))))))))))))))))))))))))))))))))))))))))))))))))))))))))))))))))))))))))))))))))))))))))))))))))))))))))))))))))))))))))))))))))))))))))))))))))))))))))))))))))))))))))))))))))))))))))))))))))))))))))).",
".!!!!!!!!!!!!!!!!!!!!!!!!!!!!!!!!!!!!!!!!!!!!!!!!!!!!!!!!!!!!!!!!!!!!!!!!!!!!!!!!!!!!!!!!!!!!!!!!!!!!!!!!!!!!!!!!!!!!!!!!!!!!!!!!!!!!!!!!!!!!!!!!!!!!!!!!!!!!!!!!!!!!!!!!!!!!!!!!!!!!!!!!!!!!!!!!!!!!!!!!!!!!!!!!!!!!!!!!!!!!!!!!!!!!!!!!!!!!!!!!!!!!!!!!!!!!!!!!!!!!!!!!!!!!!!!!!!!!!!!!!!!!!!!!!!!!!!!!!!!!!!!!!!!!!!!!!!!!!!!!!!!!!!!!!!!!!!!!!!!!!!!!!!!!!!!!!!!!!!!!!!!!!!!!!!!!!!!!!!!!!!!!!!!!!!!!!!!!!!.",
".~~~~~~~~~~~~~~~~~~~~~~~~~~~~~~~~~~~~~~~~~~~~~~~~~~~~~~~~~~~~~~~~~~~~~~~~~~~~~~~~~~~~~~~~~~~~~~~~~~~~~~~~~~~~~~~~~~~~~~~~~~~~~~~~~~~~~~~~~~~~~~~~~~~~~~~~~~~~~~~~~~~~~~~~~~~~~~~~~~~~~~~~~~~~~~~~~~~~~~~~~~~~~~~~~~~~~~~~~~~~~~~~~~~~~~~~~~~~~~~~~~~~~~~~~~~~~~~~~~~~~~~~~~~~~~~~~~~~~~~~~~~~~~~~~~~~~~~~~~~~~~~~~~~~~~~~~~~~~~~~~~~~~~~~~~~~~~~~~~~~~~~~~~~~~~~~~~~~~~~~~~~~~~~~~~~~~~~~~~~~~~~~~~~~~~~~~~~~~~.",
".{,,,,,{{{,,,,,,{,,,,,{{{,,,,,,{{{{{{{{{{,,,,,{{{,,,,,,{{{{{{{{{{{,,,,,{,,,,,{{{,,,,,,{{{{{{{{{{,,,,,{{{,,,,,,{{{{{{{{,{,,,,,{{{,,,,,,{{{{{{{{{{,,,,,{{{,,,,,,{{{{{{{{{{{,,,,,{,,,,,{{{,,,,,{{{,,,,,,{{{{{{{{{{,,,,,{{{,,,,,,{{{{{{{{{{{,,,,,{,,,,,{{{,,,,,,{{{{{{{{{{,,,,,{{{,,,,,,{{{{{{{{,{,,,,,{{{,,,,,,{{{{{{{{{{,,,,,{{{,,,,,,{{{{{{{{{{{,,,,,{,,,,,{{{,,,,,,{{{{{{{{{{,,,,,{{{,,,,,,{{{{{{{{{{{{{{{{{{{{.",
".]]]]]]]]]]]]]]]]]]]]]]]]]]]]]]]]]]]^^^^^]]]]]]]]]]]]]]]]]]]^^^^^^]]]]]]]]]]]]]]]]]]]]]]]]]^^^^^]]]]]]]]]]]]]]]]]]]^^^]]]]]]]]]]]]]]]]]]]]]^^^^^]]]]]]]]]]]]]]]]]]]^^^^^^]]]]]]]]]]]]]]]]]]]]]]]]]]]]]]]]]^^^^^]]]]]]]]]]]]]]]]]]]^^^^^^]]]]]]]]]]]]]]]]]]]]]]]]]^^^^^]]]]]]]]]]]]]]]]]]]^^^]]]]]]]]]]]]]]]]]]]]]^^^^^]]]]]]]]]]]]]]]]]]]^^^^^^]]]]]]]]]]]]]]]]]]]]]]]]]^^^^^]]]]]]]]]]]]]]]]^^^^^^^^^^]]]]]]]].",
".//////////////////////////////////////////////////////////////////////////////////////////////////////////////////////////////////////////////////////////////////////////////////////////////////////////////////////////////////////////////////////////////////////////////////////////////////////////////////////////////////////////////////////////////////////////////////////////////////////////////.",
".(_____________________________((((((::::______________((((((:::::____________________((((((::::______________((((((::________________((((((::::______________((((((:::::____________________________((((((::::______________((((((:::::____________________((((((::::______________((((((::________________((((((::::______________((((((:::::____________________((((((::::______________(((::::::::(((((((((.",
".<<<<<<<<<<<<<<<<<<<<<<<<<[[<<<<<<}}}||||<<<<<<<<<[[<<<<<<}}}|||||<<<<<<<<<<<<<<<[[<<<<<<}}}||||<<<<<<<<<[[<<<<<<}}}||<<<<<<<<<<<[[<<<<<<}}}||||<<<<<<<<<[[<<<<<<}}}|||||<<<<<<<<<<<<<<<<<<<<<<<[[<<<<<<}}}||||<<<<<<<<<[[<<<<<<}}}|||||<<<<<<<<<<<<<<<[[<<<<<<}}}||||<<<<<<<<<[[<<<<<<}}}||<<<<<<<<<<<[[<<<<<<}}}||||<<<<<<<<<[[<<<<<<}}}|||||<<<<<<<<<<<<<<<[[<<<<<<}}}||||<<<<<<<<<[[<<<<}}||||||||||||||}}<.",
"................................................................................................................................................................................................................................................................................................................................................................................................................"};
