/* XPM */
static char * desktop_xpm[] = {
"20 20 8 1",
" 	c None",
".	c #2E2E2E",
"+	c #FFFFFF",
"@	c #BEBEBE",
"#	c #949494",
"$	c #9C6300",
"%	c #000000",
"&	c #FFFFCE",
"                    ",
"                    ",
"  ................  ",
"  .++++++++++++++.  ",
"  .+@@@@@@@@@@@@+.  ",
"  .+@#####$@@@@@+.  ",
"  .+@#++++%@@@@@+.  ",
"  .+@#+++#####$@+.  ",
"  .+@#+++#++++%@+.  ",
"  .+@#+++#++++%@+.  ",
"  .+@#+++#++++%@+.  ",
"  .+@#&&&#++++%@+.  ",
"  .+@%%%%#++++%@+.  ",
"  .+@@@@@#&&&&%@+.  ",
"  .+@@@@@%%%%%%@+.  ",
"  .+@@@@@@@@@@@@+.  ",
"  .++++++++++++++.  ",
"  ................  ",
"                    ",
"                    "};
