/* XPM */
static char * desktop1_xpm[] = {
"32 20 116 2",
"  	c None",
". 	c #4A4A4A",
"+ 	c #4C4B4A",
"@ 	c #494A48",
"# 	c #4B4A48",
"$ 	c #484A48",
"% 	c #494A47",
"& 	c #484A45",
"* 	c #494945",
"= 	c #4A4A45",
"- 	c #494A46",
"; 	c #4A4A48",
"> 	c #9F9D9E",
", 	c #FFFFFF",
"' 	c #FCFFF5",
") 	c #5F5962",
"! 	c #79757A",
"~ 	c #F0F3ED",
"{ 	c #FCFFF7",
"] 	c #C5C4BF",
"^ 	c #4B484C",
"/ 	c #494746",
"( 	c #B2AFB0",
"_ 	c #CECBCE",
": 	c #E0E1DD",
"< 	c #4A464A",
"[ 	c #4A464D",
"} 	c #C9C7C6",
"| 	c #D6D4D4",
"1 	c #484546",
"2 	c #524B54",
"3 	c #D8D7D6",
"4 	c #CFCDD0",
"5 	c #454344",
"6 	c #484944",
"7 	c #4A4A44",
"8 	c #605C63",
"9 	c #E6E8E5",
"0 	c #E3E2E1",
"a 	c #4A4447",
"b 	c #474942",
"c 	c #726C73",
"d 	c #F7FBF4",
"e 	c #CBC9C9",
"f 	c #4A464E",
"g 	c #898488",
"h 	c #E1E1DD",
"i 	c #5C555D",
"j 	c #5B5659",
"k 	c #A5A2A2",
"l 	c #A9A7A7",
"m 	c #747074",
"n 	c #CDCECA",
"o 	c #DDE1D9",
"p 	c #484943",
"q 	c #454345",
"r 	c #B8B4B8",
"s 	c #D8D5D6",
"t 	c #EBEAEA",
"u 	c #B0AAB3",
"v 	c #BCB7BC",
"w 	c #C9C4C8",
"x 	c #877F88",
"y 	c #48454A",
"z 	c #484940",
"A 	c #43443D",
"B 	c #423F3F",
"C 	c #ACA6AF",
"D 	c #594B60",
"E 	c #404532",
"F 	c #414535",
"G 	c #9E95A0",
"H 	c #635769",
"I 	c #464044",
"J 	c #47493B",
"K 	c #494A41",
"L 	c #454943",
"M 	c #47493E",
"N 	c #444938",
"O 	c #B7B2B8",
"P 	c #4C424F",
"Q 	c #444737",
"R 	c #444935",
"S 	c #6E6473",
"T 	c #675D6C",
"U 	c #45493A",
"V 	c #484A41",
"W 	c #47463E",
"X 	c #BBB6BB",
"Y 	c #524858",
"Z 	c #79707B",
"` 	c #706873",
" .	c #48493E",
"..	c #474741",
"+.	c #C9C6C6",
"@.	c #5E5562",
"#.	c #45483E",
"$.	c #837D87",
"%.	c #7B747B",
"&.	c #454743",
"*.	c #6C656E",
"=.	c #938C94",
"-.	c #8B828D",
";.	c #8E8790",
">.	c #8E8890",
",.	c #4A454A",
"'.	c #474A40",
").	c #524A57",
"!.	c #8F8890",
"~.	c #8C848E",
"{.	c #908991",
"].	c #4E4751",
"^.	c #4A4944",
"/.	c #484A40",
"(.	c #45493D",
"_.	c #464942",
". . . . . . . . . . . . . . . . . . . . . . . . . . . . . . . . ",
". . . . . . . . . . . . + @ # $ $ $ $ $ $ # @ + . . . . . . . . ",
". . . . . . . . . . . @ $ % & * * * * * = - % # + . . . . . . . ",
". . . . . . . . . . @ ; - * > , ' ) ! ~ { ] ^ % @ . . . . . . . ",
". . . . . . . . . @ ; & / ( , , , ~ _ , , : < & # . . . . . . . ",
". . . . . . . . @ % * [ } , , , , , , , , | 1 * ; . . . . . . . ",
". . . . . . + # % * 2 3 , , , , , , , , , 4 5 6 % + . . . . . . ",
". . . . . + # % 7 8 9 , , , , , , , , , , 0 a b - # . . . . . . ",
". . . . @ $ - 6 c d , , , , , , , , , , , , e f 7 % # + . . . . ",
". . . @ $ - 6 g , , , , , , , , , , , , , , , h i 7 % # + . . . ",
". . . @ % j k , , , , , , , , , , , , , , , , , { l = ; @ . . . ",
". . . # - m n , , , , , , , , , , , , , , , , , , o 7 % @ . . . ",
". . . # - p q r | s , , , , t u v , , , , , w 0 x y 6 % @ . . . ",
". . . @ % 7 z A B C , , , , D E F G , , , , H I J K * ; @ . . . ",
". . . @ ; - L M N O , , , , P Q R S , , , , T U z 6 - # + . . . ",
". . . . @ ; & V W X , , , , Y U U Z , , , , `  .L - $ @ . . . . ",
". . . . . @ ; 7 ..+., , , , @.M #.$., , , , %.K & # + . . . . . ",
". . . . . . # & &.*.=.-.;.>.,.K '.).!.~.~.{.].^.- @ . . . . . . ",
". . . . . . @ % 7 /.(.J J M b 6 6 K #.J J #.V * ; @ . . . . . . ",
". . . . . . @ ; - 7 _.V V ^.* - - * L V b L * % # . . . . . . . "};
