/* XPM */
static char * linux_xpm[] = {
"48 20 269 2",
"  	c None",
". 	c #303439",
"+ 	c #5E646E",
"@ 	c #5D646E",
"# 	c #5D656E",
"$ 	c #5B666F",
"% 	c #A0B3C3",
"& 	c #9FB3C3",
"* 	c #596770",
"= 	c #9CB5C5",
"- 	c #576872",
"; 	c #99B7C7",
"> 	c #98B7C7",
", 	c #98B8C8",
"' 	c #576972",
") 	c #556A73",
"! 	c #95BACA",
"~ 	c #94BACA",
"{ 	c #546A73",
"] 	c #536B74",
"^ 	c #91BCCC",
"/ 	c #87B0BF",
"( 	c #8FBACA",
"_ 	c #516C76",
": 	c #8EBECE",
"< 	c #3B4F56",
"[ 	c #090C0D",
"} 	c #111719",
"| 	c #486069",
"1 	c #8AB9C9",
"2 	c #435A61",
"3 	c #1C262A",
"4 	c #202B2F",
"5 	c #1E282B",
"6 	c #1B2427",
"7 	c #80ADBC",
"8 	c #304147",
"9 	c #080B0C",
"0 	c #232F33",
"a 	c #0C1112",
"b 	c #425A62",
"c 	c #12181A",
"d 	c #41585F",
"e 	c #8DBFCF",
"f 	c #85B4C3",
"g 	c #0E1315",
"h 	c #4C6870",
"i 	c #6B919D",
"j 	c #192225",
"k 	c #171F22",
"l 	c #6A909C",
"m 	c #35484E",
"n 	c #4F6B74",
"o 	c #3F565D",
"p 	c #0F1416",
"q 	c #455D65",
"r 	c #506D76",
"s 	c #4F6E77",
"t 	c #8AC1D1",
"u 	c #84B8C7",
"v 	c #000000",
"w 	c #395056",
"x 	c #7EB1BF",
"y 	c #1F2C30",
"z 	c #1B2629",
"A 	c #7AABBA",
"B 	c #80B4C3",
"C 	c #07090A",
"D 	c #89C0D0",
"E 	c #7EB0BE",
"F 	c #3C545A",
"G 	c #223034",
"H 	c #719EAC",
"I 	c #395057",
"J 	c #030505",
"K 	c #4C6A73",
"L 	c #384F56",
"M 	c #243337",
"N 	c #658D99",
"O 	c #0E1416",
"P 	c #0A0E0F",
"Q 	c #374D53",
"R 	c #7DB1BF",
"S 	c #161F22",
"T 	c #050809",
"U 	c #374E55",
"V 	c #89C1D1",
"W 	c #4E6E77",
"X 	c #4C6F79",
"Y 	c #86C3D3",
"Z 	c #6999A6",
"` 	c #50757E",
" .	c #2D4247",
"..	c #030404",
"+.	c #72A5B3",
"@.	c #81BCCB",
"#.	c #496B73",
"$.	c #628F9B",
"%.	c #517781",
"&.	c #73A7B5",
"*.	c #79B0BF",
"=.	c #84C1D1",
"-.	c #426169",
";.	c #84C0D0",
">.	c #131C1E",
",.	c #182326",
"'.	c #293C41",
").	c #162022",
"!.	c #6796A3",
"~.	c #26383D",
"{.	c #1D2B2F",
"].	c #213034",
"^.	c #3D5960",
"/.	c #4C6F78",
"(.	c #4B707A",
"_.	c #83C5D5",
":.	c #507882",
"<.	c #6699A6",
"[.	c #6BA2AF",
"}.	c #324B51",
"|.	c #486D76",
"1.	c #679BA7",
"2.	c #79B8C7",
"3.	c #1B292D",
"4.	c #82C5D5",
"5.	c #82C6D6",
"6.	c #4A717A",
"7.	c #74B1BF",
"8.	c #56848E",
"9.	c #2E474D",
"0.	c #304A50",
"a.	c #1A282B",
"b.	c #39575E",
"c.	c #4C747D",
"d.	c #4A727B",
"e.	c #3E5F67",
"f.	c #30494F",
"g.	c #0C1314",
"h.	c #76B4C3",
"i.	c #152023",
"j.	c #5B8A96",
"k.	c #60929E",
"l.	c #48727B",
"m.	c #7FC8D8",
"n.	c #37575E",
"o.	c #000101",
"p.	c #79BFCE",
"q.	c #4E7B85",
"r.	c #49747D",
"s.	c #304C52",
"t.	c #020304",
"u.	c #1F3236",
"v.	c #131E21",
"w.	c #2E484E",
"x.	c #52828C",
"y.	c #69A5B2",
"z.	c #1C2C30",
"A.	c #66A1AE",
"B.	c #3B5D64",
"C.	c #0C1416",
"D.	c #7AC0D0",
"E.	c #0F191B",
"F.	c #558691",
"G.	c #41676F",
"H.	c #78BDCC",
"I.	c #385960",
"J.	c #4D7983",
"K.	c #456E77",
"L.	c #72B5C3",
"M.	c #7EC8D8",
"N.	c #46737D",
"O.	c #7BCADA",
"P.	c #203539",
"Q.	c #111D1F",
"R.	c #426D75",
"S.	c #578F9A",
"T.	c #19292C",
"U.	c #18272A",
"V.	c #538993",
"W.	c #45727B",
"X.	c #59939F",
"Y.	c #1E3236",
"Z.	c #447079",
"`.	c #010202",
" +	c #4A7983",
".+	c #36585F",
"++	c #162528",
"@+	c #6BAFBD",
"#+	c #528691",
"$+	c #568D99",
"%+	c #142224",
"&+	c #78C6D5",
"*+	c #2E4C52",
"=+	c #080E0F",
"-+	c #44747E",
";+	c #78CCDC",
">+	c #0A1112",
",+	c #274348",
"'+	c #518B96",
")+	c #44747D",
"!+	c #3C676F",
"~+	c #6EBCCA",
"{+	c #77CADA",
"]+	c #040707",
"^+	c #2D4C52",
"/+	c #78CDDD",
"(+	c #6FBECD",
"_+	c #5896A2",
":+	c #60A5B2",
"<+	c #091011",
"[+	c #538F9A",
"}+	c #4D848F",
"|+	c #0F1A1C",
"1+	c #67B0BE",
"2+	c #74C7D6",
"3+	c #091012",
"4+	c #61A7B4",
"5+	c #497E88",
"6+	c #182A2D",
"7+	c #1C3134",
"8+	c #44757E",
"9+	c #6DBBC9",
"0+	c #3D6870",
"a+	c #74C6D6",
"b+	c #101C1E",
"c+	c #111D20",
"d+	c #6EBCCB",
"e+	c #060A0B",
"f+	c #76CADA",
"g+	c #66AEBC",
"h+	c #42717A",
"i+	c #31545B",
"j+	c #6AB5C3",
"k+	c #111E20",
"l+	c #77CCDC",
"m+	c #5897A3",
"n+	c #233C41",
"o+	c #60A4B0",
"p+	c #1E3438",
"q+	c #73C4D4",
"r+	c #101B1D",
"s+	c #76C9D9",
"t+	c #040808",
"u+	c #30535A",
"v+	c #64ACB9",
"w+	c #18292D",
"x+	c #5B9BA8",
"y+	c #0B1314",
"z+	c #264146",
"A+	c #1F3539",
"B+	c #2E4E54",
"C+	c #17272A",
"D+	c #132124",
"E+	c #1E3337",
"F+	c #080F10",
"G+	c #477A83",
"H+	c #73C5D5",
"I+	c #467882",
"J+	c #63AAB7",
"K+	c #5794A0",
"L+	c #142326",
"M+	c #4A7F89",
"N+	c #0D1719",
"O+	c #72C4D3",
"P+	c #0E181A",
"Q+	c #5A9AA6",
"R+	c #70C0CF",
"S+	c #6AB6C4",
"T+	c #243D42",
". + + + + + + + + + @ @ @ @ @ @ @ @ @ # # # # # # # # # # # # # # # # # # # # # # # # # # # # . ",
"$ % % % % % % % % % % % % % % % % % % % % % % % % % % % % % % % % % % % & & & & & & & & & & & $ ",
"* = = = = = = = = = = = = = = = = = = = = = = = = = = = = = = = = = = = = = = = = = = = = = = * ",
"- ; ; ; ; ; ; ; ; ; ; ; ; ; > > > > > > , , , , , , , , , , , , , , , , , , , , , , , , , , , ' ",
") ! ! ! ! ! ! ! ! ! ! ! ! ! ! ! ! ! ! ! ! ! ! ! ! ! ! ! ! ! ! ! ! ! ! ! ! ~ ~ ~ ~ ~ ~ ~ ~ ~ ~ { ",
"] ^ ^ ^ ^ ^ ^ ^ ^ ^ ^ ^ / ( ^ ^ ^ ^ ^ ^ ^ ^ ^ ^ ^ ^ ^ ^ ^ ^ ^ ^ ^ ^ ^ ^ ^ ^ ^ ^ ^ ^ ^ ^ ^ ^ ^ ] ",
"_ : : < [ } | : : 1 2 3 4 5 6 7 8 9 } 0 0 a b c [ d e f g h e i j k l m [ 9 n e e e o 9 p q e r ",
"s t t u v w t t x y z A t B C D E v F t t G H I J t t K v L t t M N t u O P Q t t R S T U V V W ",
"X Y Y Z v ` Y Y  ...+.Y Y @.#.Y $.v %.Y &.*.=.-.v @.;.>.,.'.Y +.).Y Y !.~.{.].Y Y ^.-.v /.Y Y X ",
"(._._.:.v <._.[.v }._._._._._._.|.v 1.2.3.4.5.6.v 7.8.9.0.a.5.b.c.5.5.d.e.f.g.5.h.i.j.v k.5.5.6.",
"l.m.m.n.o.p.m.q.v r.m.m.m.m.m.m.s.t.u.v.w.m.m.x.v y.z.A.B.C.D.E.p.m.m.s.F.G.v H.I.J.K.v L.M.M.l.",
"N.O.O.P.Q.O.O.R.v S.O.O.O.O.O.O.T.U.O.V.W.O.O.X.v R.Y.O.Z.`. +.+O.O.O.++@+#+v $+%+&+*+=+O.O.O.N.",
"-+;+;+>+,+;+;+'+v )+;+;+;+!+~+{+]+^+;+/+(+_+/+:+v <+[+/+}+v |+1+/+/+2+3+/+4+v E.5+/+6+7+/+/+/+8+",
"8+/+9+v 0+/+/+a+b+c+(+/+d+e+f+g+v h+/+/+8+i+/+j+v k+l+/+m+v n+/+/+/+o+p+/+q+v r+s+l+t+u+/+/+/+8+",
"8+v+w+v ++x+/+/+g+7+y+z+A+B+o+C+v D+E+E+F+G+/+H+v I+/+/+J+v K+/+/+o+L+3+M+/+N+M+O+7+v P+Q+/+/+8+",
"8+/+/+/+/+/+/+/+/+/+R+S+/+/+/+/+/+/+/+/+/+/+/+/+/+/+/+/+/+/+/+/+/+/+/+/+/+/+/+/+/+/+/+/+/+/+/+8+",
"8+/+/+/+/+/+/+/+/+/+/+/+/+/+/+/+/+/+/+/+/+/+/+/+/+/+/+/+/+/+/+/+/+/+/+/+/+/+/+/+/+/+/+/+/+/+/+8+",
"8+/+/+/+/+/+/+/+/+/+/+/+/+/+/+/+/+/+/+/+/+/+/+/+/+/+/+/+/+/+/+/+/+/+/+/+/+/+/+/+/+/+/+/+/+/+/+8+",
"8+/+/+/+/+/+/+/+/+/+/+/+/+/+/+/+/+/+/+/+/+/+/+/+/+/+/+/+/+/+/+/+/+/+/+/+/+/+/+/+/+/+/+/+/+/+/+8+",
"T+h+h+h+h+h+h+h+h+h+h+h+h+h+h+h+h+h+h+h+h+h+h+h+h+h+h+h+h+h+h+h+h+h+h+h+h+h+h+h+h+h+h+h+h+h+h+T+"};
