/* XPM */
static char * icewm_xpm[] = {
"90 22 303 2",
"  	c None",
". 	c #000000",
"+ 	c #010202",
"@ 	c #101010",
"# 	c #292929",
"$ 	c #3B3B3B",
"% 	c #444444",
"& 	c #020202",
"* 	c #262626",
"= 	c #424242",
"- 	c #2F2F2F",
"; 	c #0C0C0C",
"> 	c #010101",
", 	c #111111",
"' 	c #747474",
") 	c #9A9A9A",
"! 	c #9E9E9E",
"~ 	c #9C9C9C",
"{ 	c #9B9E9B",
"] 	c #2B2B2B",
"^ 	c #2E2E2E",
"/ 	c #787878",
"( 	c #888888",
"_ 	c #7C7C7C",
": 	c #7B7B7B",
"< 	c #3D3D3D",
"[ 	c #090909",
"} 	c #B2B2B2",
"| 	c #C7C7C7",
"1 	c #C8C8C8",
"2 	c #B3B3B3",
"3 	c #B4B4B4",
"4 	c #B5B5B5",
"5 	c #C3C3C3",
"6 	c #B6B6B6",
"7 	c #C5C5C5",
"8 	c #C9C9C9",
"9 	c #B9B9B9",
"0 	c #B7B7B7",
"a 	c #C4C4C4",
"b 	c #CBCBCB",
"c 	c #B8B8B8",
"d 	c #CACACA",
"e 	c #BABABA",
"f 	c #8F8F8F",
"g 	c #707070",
"h 	c #A9A9A9",
"i 	c #A8A8A8",
"j 	c #C0C0C0",
"k 	c #E9E9E9",
"l 	c #C1C1C1",
"m 	c #C2C2C2",
"n 	c #BCBCBC",
"o 	c #DDDDDD",
"p 	c #E6E6E6",
"q 	c #ADADAD",
"r 	c #ACACAC",
"s 	c #BEBEBE",
"t 	c #E2E2E2",
"u 	c #E8E8E8",
"v 	c #B0B0B0",
"w 	c #BBBBBB",
"x 	c #EAEAEA",
"y 	c #E7E7E7",
"z 	c #E4E4E4",
"A 	c #AFAFAF",
"B 	c #AEAEAE",
"C 	c #B1B1B1",
"D 	c #A1A1A1",
"E 	c #868686",
"F 	c #646464",
"G 	c #7D7D7D",
"H 	c #A0A0A0",
"I 	c #9D9D9D",
"J 	c #676767",
"K 	c #696969",
"L 	c #D8D8D8",
"M 	c #E5E5E5",
"N 	c #DBDBDB",
"O 	c #909090",
"P 	c #7A7A7A",
"Q 	c #D0D0D0",
"R 	c #AAAAAA",
"S 	c #CCCCCC",
"T 	c #8B8B8B",
"U 	c #757575",
"V 	c #D9D9D9",
"W 	c #A6A6A6",
"X 	c #EBEBEB",
"Y 	c #717171",
"Z 	c #858585",
"` 	c #B6B5B6",
" .	c #A4A3A4",
"..	c #A4A4A4",
"+.	c #A5A5A5",
"@.	c #878787",
"#.	c #808080",
"$.	c #A6A6A5",
"%.	c #A5A6A6",
"&.	c #A6A5A6",
"*.	c #AAA9A9",
"=.	c #838383",
"-.	c #7F7F7F",
";.	c #585858",
">.	c #5F5E5F",
",.	c #949494",
"'.	c #919191",
").	c #919091",
"!.	c #595959",
"~.	c #D7D7D7",
"{.	c #8D8D8D",
"].	c #686868",
"^.	c #5B5B5B",
"/.	c #5A5A5A",
"(.	c #666666",
"_.	c #DFDFDF",
":.	c #999999",
"<.	c #6C6C6C",
"[.	c #5D5D5D",
"}.	c #5C5C5C",
"|.	c #D6D6D6",
"1.	c #DEDEDE",
"2.	c #ABABAB",
"3.	c #5F5F5F",
"4.	c #BDBDBD",
"5.	c #606060",
"6.	c #959595",
"7.	c #ABAAAB",
"8.	c #D3D3D3",
"9.	c #626262",
"0.	c #8C8C8C",
"a.	c #CECECE",
"b.	c #A7A7A7",
"c.	c #989898",
"d.	c #CDCDCD",
"e.	c #8E8E8E",
"f.	c #656565",
"g.	c #9B9B9B",
"h.	c #9F9FA0",
"i.	c #626261",
"j.	c #4C4C4C",
"k.	c #828181",
"l.	c #848484",
"m.	c #525252",
"n.	c #535353",
"o.	c #727272",
"p.	c #545454",
"q.	c #555555",
"r.	c #565656",
"s.	c #575757",
"t.	c #E0E0E0",
"u.	c #BDBEBE",
"v.	c #737373",
"w.	c #A3A3A3",
"x.	c #BEBEBD",
"y.	c #959596",
"z.	c #5E5E5E",
"A.	c #8E8F8F",
"B.	c #8F9090",
"C.	c #6D6D6D",
"D.	c #403F40",
"E.	c #404040",
"F.	c #656465",
"G.	c #777777",
"H.	c #777877",
"I.	c #787777",
"J.	c #9F9F9F",
"K.	c #4B4B4B",
"L.	c #4D4D4D",
"M.	c #505050",
"N.	c #4F4F4F",
"O.	c #E1E1E1",
"P.	c #DCDCDC",
"Q.	c #C6C6C6",
"R.	c #515151",
"S.	c #A2A2A2",
"T.	c #8A8A8A",
"U.	c #E3E3E3",
"V.	c #C0C0C1",
"W.	c #828282",
"X.	c #828383",
"Y.	c #3F3F40",
"Z.	c #343433",
"`.	c #333434",
" +	c #464646",
".+	c #6D6D6E",
"++	c #6A6A6A",
"@+	c #696A6A",
"#+	c #969696",
"$+	c #474747",
"%+	c #A7A8A7",
"&+	c #979798",
"*+	c #4A4A4A",
"=+	c #494949",
"-+	c #CFCFCF",
";+	c #979797",
">+	c #D4D3D4",
",+	c #989899",
"'+	c #929292",
")+	c #9D9E9D",
"!+	c #767676",
"~+	c #4C4D4D",
"{+	c #343334",
"]+	c #343434",
"^+	c #272828",
"/+	c #272827",
"(+	c #282728",
"_+	c #282828",
":+	c #282727",
"<+	c #676867",
"[+	c #D1D1D1",
"}+	c #686768",
"|+	c #676768",
"1+	c #686867",
"2+	c #6B6A6A",
"3+	c #030303",
"4+	c #3C3C3C",
"5+	c #7E7E7E",
"6+	c #363636",
"7+	c #252525",
"8+	c #303030",
"9+	c #2D2D2D",
"0+	c #272728",
"a+	c #272727",
"b+	c #1C1C1C",
"c+	c #1C1B1B",
"d+	c #1B1B1C",
"e+	c #1C1B1C",
"f+	c #1C1C1B",
"g+	c #1B1B1B",
"h+	c #1B1C1B",
"i+	c #929291",
"j+	c #151515",
"k+	c #050505",
"l+	c #323232",
"m+	c #040404",
"n+	c #3A3A3A",
"o+	c #5E5F5E",
"p+	c #484848",
"q+	c #0F0F0F",
"r+	c #1B1C1C",
"s+	c #0F0F10",
"t+	c #100F10",
"u+	c #10100F",
"v+	c #100F0F",
"w+	c #0F100F",
"x+	c #575657",
"y+	c #0E0E0E",
"z+	c #3E3E3E",
"A+	c #BEBEBF",
"B+	c #565756",
"C+	c #575656",
"D+	c #525352",
"E+	c #6E6E6E",
"F+	c #606061",
"G+	c #454545",
"H+	c #6E6F6F",
"I+	c #616061",
"J+	c #BFBFBF",
"K+	c #434343",
"L+	c #636363",
"M+	c #0F1010",
"N+	c #040303",
"O+	c #030304",
"P+	c #040304",
"Q+	c #030403",
"R+	c #4E4E4E",
"S+	c #C9C9CA",
"T+	c #B9B9BA",
"U+	c #191919",
"V+	c #BCBDBC",
"W+	c #171717",
"X+	c #252526",
"Y+	c #C1C0C0",
"Z+	c #212121",
"`+	c #161616",
" @	c #B7B6B6",
".@	c #939393",
"+@	c #2D2E2D",
"@@	c #161716",
"#@	c #6E6D6D",
"$@	c #CACAC9",
"%@	c #403F3F",
"&@	c #0E0F0E",
"*@	c #A4A5A4",
"=@	c #383838",
"-@	c #C9CAC9",
";@	c #0A0A0A",
">@	c #676666",
",@	c #717271",
"'@	c #040403",
")@	c #070707",
"!@	c #1F1F1F",
"~@	c #2C2C2C",
"{@	c #3F3F3F",
"]@	c #313131",
"^@	c #484948",
"/@	c #484A49",
"(@	c #484A48",
"_@	c #474A48",
":@	c #414141",
"<@	c #121212",
"[@	c #2A2A2A",
"  . . + @ # $ % % % % % % % % % % % % % % % % % % % % % % % % % % % % % % % % % % % % % % % % % % % % % % % % % % % % % % % % % % % % % % % % % % % % % % % % % % % % $ # @ + . .   ",
"  . & * = - ; > > > > > > > > > > > > > > > > > > > > > > > > > > > > > > > > > > > > > > > > > > > > > > > > > > > > > > > > > > > > > > > > > > > > > > > > > > > > ; - = * & .   ",
"  . , = @ ' ) ! ! ! ! ! ! ! ! ! ! ! ! ! ! ! ! ! ! ! ! ! ! ! ! ! ! ! ! ! ! ! ! ! ! ! ~ ~ { { { ~ ~ ! ! ! ! ! ! ! ! ! ! ! ! ! ! ! ! ! ! ! ! ! ! ! ! ! ! ! ! ! ! ! ~ ~ ! ) ' @ = , .   ",
"  . ] ^ / ( _ _ : : : : : : : : : : : : : : : : : : : : : : : : : : : : : : : : : : : : : : : : : : : : : : : : : : : : : : : : : : : : : : : : : : : : : : : : : : : : ( / ^ ] .   ",
"  . < [ ) _ : } } } } } } } | 1 1 1 2 2 2 2 2 2 2 2 2 3 3 3 3 3 3 3 3 3 3 4 4 5 | | 1 6 6 6 6 7 8 8 8 9 0 0 0 a b b b 8 8 1 9 c c c c c c c 9 8 d d d 9 9 9 9 9 e e e : : ) [ < .   ",
"  . % > f g ) h i i i i i j k k k k l j m m m 5 5 5 5 5 5 l j 5 5 5 5 5 5 m n o p p p l q r s t u u u | v q w o x x x y u z m A B A B A A C 5 p y y y 5 v v v C C C } D g f > % .   ",
"  . % > E F G H I I I I I e x J K x L M k x x x x x x x x p z x x x x x x y N N O P p Q r R S x T U N V } W a X ~ Y M P Z z o `  .....+...0 o z @.#.X j $.%.%.%.W &.*.=.F E > % .   ",
"  . % > -.;.>.,.'.'.O ).).C y ;.!.y ~.{.].^.^.^./.^.^.^.(._.:.<.[.}.}.[.].T |.1.2.3.q t 2 B 1.4.3.5.6.y n 7.|.8.9.E u 9.9.0.z a.b.c.:.:.W d.M e.F f.k 0 ) g.) g.g.g.h.i.;.-.> % .   ",
"  . % > g j.j.k.l.l.l.Z Z h M m.n.M o.n.n.n.n.p.p.q.q.p.5.G r.q.r.r.r.r.s.r.Y M t.f.(.t a u.p v.^.o.^.8.Q 4 M 0.}.| p }.}.(.w.M x.y.0.6.n M b.J 3.z.y A e.e.e.A.B.B.{.j.j.g > % .   ",
"  . % > C.D.E.F./ G.H.H.I.J.t K.j.t j.L.s 1.t t t t t t t M.N.| o O.t P.Q.M.R.t P.S.m...P.|.6 n.T.s n.T t b a.r.G U.U.q.r.4.s.e _.7.Z i o V.!.e ;.;.z b.W.W.W.W.X.l.g Y.E.C.> % .   ",
"  . % > C.Z.`. +.+++++++@+#+_. + +_. +$+_.%+:.&+c.c.c.c.t.*+*+*+=+*+*+*+K.*+K.t.9 N !.^.P.t.K N.-+t.o.R.d._.l.N.l d.O.N.M.O.;+!.8 >+,+-+d.z.'+O.n.n.O.)+!+U !+G.!+: ~+{+]+C.> % .   ",
"  . % > < ^+/+(+(+_+^+:+_+<+[+. . [+. . [+l.++}+|+1+].1+[+. . . . . . . . . ; [+2+1 o.. / '.. r.-+0 g.. R.4 3+4+[+5+[+. . [+| 6+7+4.2.7 8+9+5 [+. . [+|+/+_+_+^+0+a+:+0+_+< > % .   ",
"  . % > < b+c+d+e+f+f+g+h+>.-+. . -+& . #+| -+-+-+-+-+-+-+& . Z m a.-+-+-+-+-+1 }.i+Q., j+_+k+9 H : -+l+m+n+. w.B o+-+. . -+C } j+p+a.}.q+A 4 -+. . -+3.d+h+f+g+c+h+r+g+g+< > % .   ",
"  . % > < s+t+s+u+s+s+v+w+x+S . . S 8+. . . . . . . . . y+z+. . . . b+A+B+C+r.D+, p.m E+. . ;.1 F+G+A ;+. . 4+S H+r.S . . S I+J+g.3+K+> f 5 L+S . . S B+M+q+q+w+w+v+w+u+u+< > % .   ",
"  . % > E.N+3+N+O+P+Q+O+3+R+8 y+y+S+T+p.U+3+. . . . . . q+V+[.U+. . W+w G+N+3+3+3+X+E Y+Z+`+ @.@+@@@#@$@%@&@*@+.=@R+S+y+q+-@R+K | U ;@>@1 ,@R+-@y+y+8 R+'@3+3+3+'@3+3+Q+m+E.> % .   ",
"  . % > G+. . . . . . . . $+j j j j 6.e Q.8 8 8 8 8 8 8 8 J+e 8 8 8 8 e K+. . . . 3+G+4 w w w N.)@. ]+D j j j [.y+$+j j j J+ +!@5+5 5 5 ( 7+ +j j j j $+. . . . . . . . . G+> % .   ",
"  . % > p+. . . . . . . . . $+$+$+ +~@= K.j.j.j.j.j.j.j.j. += j.j.j.j.K+. . . . . . 3+{@% % % )@. . . ]+ + + +y+. . $+$+$+ +. . !@p+p+p+7+. .  +$+$+$+. . . . . . . . . . p+> % .   ",
"  . % > *+`+. . . . . . . . . . . . . . . . . . . . . . . . . . . . . . . . . . . . . . . . . . . . . . . . . . . . . . . . . . . . . . . . . . . . . . . . . . . . . . j+*+> % .   ",
"  . ] 9+$+]@`+`+`+`+`+`+`+`+`+`+`+`+`+`+`+`+`+`+`+`+`+`+`+`+`+`+`+`+`+`+`+`+`+`+`+`+`+`+`+`+`+`+`+`+`+`+`+`+`+`+`+`+`+`+`+`+`+`+`+`+`+`+`+`+`+`+`+`+`+`+`+`+`+`+`+`+`+`+]@$+9+] .   ",
"  . , = 3+p+p.j.=+=+=+=+=+=+=+=+=+=+=+=+=+=+=+=+=+=+=+=+=+=+=+=+=+=+=+=+=+^@^@/@(@(@_@_@_@_@_@_@_@(@(@(@^@^@=+=+=+=+=+=+=+=+=+=+=+=+=+=+=+=+=+=+=+=+=+=+=+=+=+=+=+=+j.p.p+3+= , .   ",
"  . & * :@~@;@> > > > > > > > > > > > > > > > > > > > > > > > > > > > > > > > > > > > > > > > > > > > > > > > > > > > > > > > > > > > > > > > > > > > > > > > > > > > ;@~@:@* & .   ",
"  . . & <@[@4+% % % % % % % % % % % % % % % % % % % % % % % % % % % % % % % % % % % % % % % % % % % % % % % % % % % % % % % % % % % % % % % % % % % % % % % % % % % % 4+[@<@& . .   "};
