/* XPM */
static char * windows_xpm[] = {
"20 20 3 1",
" 	c None",
".	c #2E2E2E",
"+	c #FFFFFF",
"                    ",
"                    ",
" ..........         ",
" .++++++++.         ",
" .++++++++.         ",
" .+......+.         ",
" .+. ..........     ",
" .+. .++++++++.     ",
" .+...++++++++.     ",
" .+++.+......+.     ",
" .....+............ ",
"     .+. .++++++++. ",
"     .+...++++++++. ",
"     .+++.+......+. ",
"     .....+.... .+. ",
"         .+.    .+. ",
"         .+......+. ",
"         .++++++++. ",
"         .......... ",
"                    "};
